<svg xmlns="http://www.w3.org/2000/svg" xmlns:xlink="http://www.w3.org/1999/xlink" width="1080" zoomAndPan="magnify" viewBox="0 0 810 809.999993" height="1080" preserveAspectRatio="xMidYMid meet" version="1.0"><defs><clipPath id="610288d779"><path d="M 195.1875 195.1875 L 615 195.1875 L 615 615 L 195.1875 615 Z M 195.1875 195.1875 " clip-rule="nonzero"/></clipPath></defs><g clip-path="url(#610288d779)"><path fill="#e75c3f" d="M 512.96875 614.8125 L 298.144531 614.8125 C 241.378906 614.8125 195.742188 569.175781 195.742188 512.410156 L 195.742188 297.589844 C 195.742188 240.824219 241.378906 195.1875 298.144531 195.1875 L 511.855469 195.1875 C 568.621094 195.1875 614.257812 240.824219 614.257812 297.589844 L 614.257812 511.296875 C 614.257812 568.0625 568.621094 613.699219 511.855469 613.699219 Z M 298.144531 228.578125 C 260.300781 228.578125 229.136719 259.746094 229.136719 297.589844 L 229.136719 511.296875 C 229.136719 549.140625 260.300781 580.308594 298.144531 580.308594 L 511.855469 580.308594 C 549.699219 580.308594 580.863281 549.140625 580.863281 511.296875 L 580.863281 297.589844 C 580.863281 259.746094 549.699219 228.578125 511.855469 228.578125 Z M 298.144531 228.578125 " fill-opacity="1" fill-rule="nonzero"/></g><path fill="#e75c3f" d="M 406.113281 540.238281 C 332.652344 540.238281 273.660156 481.246094 273.660156 407.78125 C 273.660156 334.320312 332.652344 275.328125 406.113281 275.328125 C 479.574219 275.328125 538.566406 334.320312 538.566406 407.78125 C 538.566406 481.246094 479.574219 540.238281 406.113281 540.238281 Z M 406.113281 307.605469 C 350.460938 307.605469 305.9375 352.128906 305.9375 407.78125 C 305.9375 463.4375 350.460938 507.957031 406.113281 507.957031 C 461.765625 507.957031 506.289062 463.4375 506.289062 407.78125 C 506.289062 352.128906 461.765625 307.605469 406.113281 307.605469 Z M 406.113281 307.605469 " fill-opacity="1" fill-rule="nonzero"/><path fill="#e75c3f" d="M 406.113281 467.886719 C 372.722656 467.886719 346.007812 441.175781 346.007812 407.78125 C 346.007812 374.390625 372.722656 347.675781 406.113281 347.675781 C 439.503906 347.675781 466.21875 374.390625 466.21875 407.78125 C 466.21875 441.175781 439.503906 467.886719 406.113281 467.886719 Z M 406.113281 381.070312 C 391.644531 381.070312 379.398438 393.3125 379.398438 407.78125 C 379.398438 422.253906 391.644531 434.496094 406.113281 434.496094 C 420.582031 434.496094 432.828125 422.253906 432.828125 407.78125 C 432.828125 393.3125 420.582031 381.070312 406.113281 381.070312 Z M 406.113281 381.070312 " fill-opacity="1" fill-rule="nonzero"/><path fill="#e75c3f" d="M 549.699219 283.121094 C 549.699219 283.847656 549.664062 284.574219 549.589844 285.300781 C 549.519531 286.027344 549.414062 286.746094 549.269531 287.460938 C 549.128906 288.175781 548.953125 288.882812 548.738281 289.582031 C 548.527344 290.28125 548.28125 290.964844 548.003906 291.636719 C 547.726562 292.3125 547.414062 292.96875 547.070312 293.613281 C 546.726562 294.257812 546.351562 294.882812 545.945312 295.488281 C 545.542969 296.09375 545.109375 296.679688 544.644531 297.242188 C 544.183594 297.804688 543.695312 298.34375 543.179688 298.859375 C 542.664062 299.375 542.121094 299.863281 541.558594 300.328125 C 540.996094 300.789062 540.410156 301.222656 539.804688 301.628906 C 539.199219 302.035156 538.574219 302.410156 537.929688 302.753906 C 537.289062 303.097656 536.628906 303.40625 535.957031 303.6875 C 535.28125 303.964844 534.597656 304.210938 533.898438 304.421875 C 533.203125 304.632812 532.496094 304.8125 531.78125 304.953125 C 531.066406 305.09375 530.34375 305.203125 529.617188 305.273438 C 528.894531 305.34375 528.167969 305.378906 527.4375 305.378906 C 526.707031 305.378906 525.980469 305.34375 525.253906 305.273438 C 524.53125 305.203125 523.808594 305.09375 523.09375 304.953125 C 522.378906 304.8125 521.671875 304.632812 520.976562 304.421875 C 520.277344 304.210938 519.589844 303.964844 518.917969 303.6875 C 518.246094 303.40625 517.585938 303.097656 516.941406 302.753906 C 516.300781 302.410156 515.675781 302.035156 515.070312 301.628906 C 514.464844 301.222656 513.878906 300.789062 513.316406 300.328125 C 512.75 299.863281 512.210938 299.375 511.695312 298.859375 C 511.179688 298.34375 510.691406 297.804688 510.230469 297.242188 C 509.765625 296.679688 509.332031 296.09375 508.925781 295.488281 C 508.523438 294.882812 508.148438 294.257812 507.804688 293.613281 C 507.460938 292.96875 507.148438 292.3125 506.871094 291.636719 C 506.589844 290.964844 506.347656 290.28125 506.132812 289.582031 C 505.921875 288.882812 505.746094 288.175781 505.601562 287.460938 C 505.460938 286.746094 505.355469 286.027344 505.28125 285.300781 C 505.210938 284.574219 505.175781 283.847656 505.175781 283.121094 C 505.175781 282.390625 505.210938 281.664062 505.28125 280.9375 C 505.355469 280.210938 505.460938 279.492188 505.601562 278.777344 C 505.746094 278.0625 505.921875 277.355469 506.132812 276.65625 C 506.347656 275.960938 506.589844 275.273438 506.871094 274.601562 C 507.148438 273.925781 507.460938 273.269531 507.804688 272.625 C 508.148438 271.984375 508.523438 271.359375 508.925781 270.75 C 509.332031 270.144531 509.765625 269.5625 510.230469 268.996094 C 510.691406 268.433594 511.179688 267.894531 511.695312 267.378906 C 512.210938 266.863281 512.75 266.375 513.316406 265.910156 C 513.878906 265.449219 514.464844 265.015625 515.070312 264.609375 C 515.675781 264.203125 516.300781 263.832031 516.941406 263.488281 C 517.585938 263.144531 518.246094 262.832031 518.917969 262.554688 C 519.589844 262.273438 520.277344 262.027344 520.976562 261.816406 C 521.671875 261.605469 522.378906 261.429688 523.09375 261.285156 C 523.808594 261.144531 524.53125 261.035156 525.253906 260.964844 C 525.980469 260.894531 526.707031 260.859375 527.4375 260.859375 C 528.167969 260.859375 528.894531 260.894531 529.617188 260.964844 C 530.34375 261.035156 531.066406 261.144531 531.78125 261.285156 C 532.496094 261.429688 533.203125 261.605469 533.898438 261.816406 C 534.597656 262.027344 535.28125 262.273438 535.957031 262.554688 C 536.628906 262.832031 537.289062 263.144531 537.929688 263.488281 C 538.574219 263.832031 539.199219 264.203125 539.804688 264.609375 C 540.410156 265.015625 540.996094 265.449219 541.558594 265.910156 C 542.121094 266.375 542.664062 266.863281 543.179688 267.378906 C 543.695312 267.894531 544.183594 268.433594 544.644531 268.996094 C 545.109375 269.5625 545.542969 270.144531 545.945312 270.75 C 546.351562 271.359375 546.726562 271.984375 547.070312 272.625 C 547.414062 273.269531 547.726562 273.925781 548.003906 274.601562 C 548.28125 275.273438 548.527344 275.960938 548.738281 276.65625 C 548.953125 277.355469 549.128906 278.0625 549.269531 278.777344 C 549.414062 279.492188 549.519531 280.210938 549.589844 280.9375 C 549.664062 281.664062 549.699219 282.390625 549.699219 283.121094 Z M 549.699219 283.121094 " fill-opacity="1" fill-rule="nonzero"/></svg>