<?xml version="1.0" standalone="no"?>
<!DOCTYPE svg PUBLIC "-//W3C//DTD SVG 20010904//EN"
 "http://www.w3.org/TR/2001/REC-SVG-20010904/DTD/svg10.dtd">
<svg version="1.0" xmlns="http://www.w3.org/2000/svg"
 width="512.000000pt" height="512.000000pt" viewBox="0 0 512.000000 512.000000"
 preserveAspectRatio="xMidYMid meet">
<metadata>
Created by potrace 1.16, written by Peter Selinger 2001-2019
</metadata>
<g transform="translate(0.000000,512.000000) scale(0.100000,-0.100000)"
fill="#000000" stroke="none">
<path d="M2326 4784 c-160 -29 -342 -104 -491 -202 -91 -60 -278 -248 -337
-337 -101 -154 -173 -332 -203 -499 -20 -115 -20 -337 0 -452 38 -214 146
-442 292 -613 l29 -34 -100 -68 c-344 -230 -580 -562 -729 -1026 -90 -280
-136 -569 -144 -908 -4 -210 -3 -222 16 -253 12 -18 35 -41 53 -52 33 -20 55
-20 1848 -20 1793 0 1815 0 1848 20 18 11 41 34 53 52 20 32 20 43 15 258 -21
889 -326 1564 -872 1929 l-100 68 29 34 c103 121 196 286 247 437 42 127 60
245 60 402 0 271 -68 497 -217 724 -61 92 -248 279 -340 339 -155 102 -327
172 -500 202 -108 19 -350 18 -457 -1z m398 -325 c347 -56 644 -323 753 -676
25 -81 27 -101 27 -263 0 -162 -2 -182 -27 -263 -78 -252 -242 -454 -470 -577
-144 -78 -283 -111 -457 -111 -415 1 -786 282 -905 686 -50 168 -46 401 11
567 152 447 596 712 1068 637z m-624 -2139 c133 -53 237 -72 415 -77 248 -7
393 22 607 124 l98 46 52 -24 c74 -34 211 -125 290 -193 333 -285 543 -806
584 -1448 l7 -108 -1593 0 -1593 0 7 107 c51 799 342 1361 838 1623 l89 47 72
-38 c40 -20 97 -47 127 -59z"/>
</g>
</svg>
